<svg width="27" height="27" viewBox="0 0 27 27" fill="none" xmlns="http://www.w3.org/2000/svg">
<path d="M13.3234 0.179688C6.132 0.179688 0.333496 6.01059 0.333496 13.1696C0.333496 20.3611 6.1644 26.1596 13.3234 26.1596C20.5149 26.1596 26.3134 20.3287 26.3134 13.1696C26.3134 5.97819 20.5149 0.179688 13.3234 0.179688ZM17.1459 7.56549C17.1459 7.69507 17.0487 7.75985 16.9515 7.75985H15.2995C14.8783 7.75985 14.5544 8.08379 14.5544 8.50491V10.2218H16.8868C17.0163 10.2218 17.1135 10.319 17.0811 10.4485L16.8868 12.8781C16.8868 12.9753 16.7896 13.0724 16.6924 13.0724H14.5544V21.1709C14.5544 21.3005 14.4572 21.3653 14.36 21.3653H11.4122C11.2826 21.3653 11.2178 21.2681 11.2178 21.1709V13.202V13.0724H9.72771C9.59814 13.0724 9.53335 12.9753 9.53335 12.8781V10.4485C9.53335 10.319 9.63053 10.2542 9.72771 10.2542H11.2178V7.88943C11.2178 6.23734 12.546 4.90919 14.1981 4.90919H16.9839C17.1135 4.90919 17.1783 5.00638 17.1783 5.10356V7.56549H17.1459Z" fill="#F5F5F2"/>
</svg>
