<svg width="54" height="56" viewBox="0 0 54 56" fill="none" xmlns="http://www.w3.org/2000/svg">
<path d="M10.9141 55.2038V26.2136C11.3697 26.1749 11.7644 26.1122 12.1609 26.1122C17.8445 26.1122 23.5275 26.1159 29.2098 26.1233C31.508 26.1233 33.751 26.4571 35.7762 27.6321C38.1206 28.9915 39.4893 30.9522 39.2808 33.7669C39.0779 36.3843 37.2887 37.7086 35.1196 38.6844C34.5994 38.9186 34.0701 39.1326 33.2105 39.4978C34.5367 40.0401 35.5346 40.3979 36.4901 40.848C40.7159 42.8419 42.2302 47.6302 39.7622 51.1772C38.5651 52.8982 36.8295 53.909 34.8743 54.4476C33.3526 54.8681 31.7589 55.2167 30.1911 55.2425C24.1042 55.3422 18.0062 55.2997 11.9138 55.3052C11.5966 55.3016 11.2885 55.2425 10.9141 55.2038ZM19.6773 49.9894C22.7263 49.9894 25.6849 50.2328 28.5827 49.9156C31.0856 49.6389 32.22 47.61 31.6667 45.3744C31.2978 43.884 30.0453 42.8899 28.1031 42.6999C26.4043 42.5339 24.6926 42.4914 22.9495 42.3937V37.5039C23.7777 37.5039 24.5339 37.5186 25.2883 37.5039C26.0428 37.4891 26.8341 37.4596 27.6032 37.3895C29.8922 37.1811 31.1078 36.0541 31.0986 34.1819C31.0986 32.413 30.0121 31.382 27.7194 31.2307C25.506 31.0813 23.2704 31.1569 21.0497 31.0462C19.9079 30.9891 19.5741 31.4041 19.5741 32.5219C19.6202 37.9282 19.5925 43.3362 19.598 48.7443C19.5999 49.1796 19.6534 49.6242 19.6773 49.9894Z" fill="#F5F5F2"/>
<path d="M27.3543 5.54221C24.7333 5.54221 22.3649 5.38174 20.0316 5.59386C18.1152 5.7654 16.136 6.12876 14.3634 6.84812C10.6043 8.37722 9.0457 11.4815 9.08444 15.4306C9.12504 19.3299 10.881 22.2 14.404 23.9431C14.8092 24.1075 15.1751 24.3558 15.4775 24.6716H11.2241C9.47552 24.6716 9.47367 24.6716 9.46631 26.4811C9.46631 27.1119 9.46631 27.7427 9.46631 28.6318C8.84098 28.3976 8.38907 28.2629 7.97223 28.0655C2.64343 25.4943 -0.0292781 21.1855 0.000241872 15.3255C0.0279119 9.43597 2.75409 5.07369 8.04416 2.41392C12.4876 0.178365 17.2667 -0.168397 22.1325 0.0603232C23.5841 0.132263 25.0339 0.287185 26.4708 0.501165C26.7955 0.549105 27.299 0.982565 27.3137 1.26294C27.3986 2.74592 27.3543 4.23814 27.3543 5.54221Z" fill="#F5F5F2"/>
<path d="M42.2448 31.3561C45.3381 32.3521 48.4129 33.3998 51.532 34.3073C52.2919 34.5268 52.6036 34.7316 52.5797 35.5266C52.5335 37.1109 52.5667 38.6991 52.5667 40.2762C50.5377 40.4292 42.634 37.8562 40.1033 36.233C41.3336 32.9387 40.5903 30.0318 38.0744 27.5214C39.181 27.2078 40.2694 27.0492 41.2229 26.5991C43.6374 25.4795 44.6076 23.3417 44.1742 20.4661C43.8698 18.4777 42.1009 16.8343 39.6643 16.5244C37.9035 16.3224 36.1318 16.23 34.3595 16.2477C33.4058 16.2477 33.0518 15.9433 33.1053 14.9953C33.1661 13.907 33.0758 12.8077 33.1679 11.7213C33.1956 11.3874 33.6033 10.812 33.8394 10.8101C38.6978 10.775 43.6152 10.4412 48.1823 12.6232C51.7772 14.3368 53.3856 17.2714 53.3266 21.1965C53.2676 25.0368 51.2977 27.6523 47.9222 29.1722C46.168 29.9635 44.2331 30.3416 42.3721 30.906C42.3278 31.0573 42.2872 31.2067 42.2448 31.3561Z" fill="#F5F5F2"/>
<path d="M31.7311 24.703H22.9549C22.9549 23.4229 22.9549 22.2645 22.9549 21.1062C22.9549 19.6509 22.9236 18.1937 22.9641 16.7384C22.9881 15.9674 22.7022 15.676 21.9368 15.7036C20.8909 15.7423 19.8432 15.6833 18.8011 15.7165C18.0891 15.7368 17.8272 15.4269 17.8419 14.7426C17.8641 13.7429 17.8752 12.7395 17.8309 11.7416C17.7903 10.8802 18.1998 10.6515 18.9855 10.6552C22.859 10.6774 26.7214 10.6441 30.5894 10.7013C30.9712 10.7013 31.3807 11.1569 31.709 11.4723C31.8233 11.583 31.7348 11.9094 31.7348 12.1363L31.7311 24.703Z" fill="#F5F5F2"/>
<path d="M22.9087 36.2921V32.3872C24.7716 32.4905 26.5424 32.4739 28.2689 32.7469C28.8388 32.8373 29.6744 33.6692 29.6928 34.1764C29.7112 34.6836 28.9642 35.652 28.4256 35.7609C26.666 36.0984 24.8418 36.1297 22.9087 36.2921Z" fill="#F5F5F2"/>
</svg>
