<svg width="26" height="25" viewBox="0 0 26 25" fill="none" xmlns="http://www.w3.org/2000/svg">
<path d="M25.3383 23.2498L19.414 17.3255C20.8825 15.5351 21.7677 13.2418 21.7677 10.7423C21.7677 5.00913 17.1157 0.357178 11.3825 0.357178C5.64424 0.357178 0.997314 5.00913 0.997314 10.7423C0.997314 16.4756 5.64424 21.1275 11.3825 21.1275C13.882 21.1275 16.1702 20.2474 17.9606 18.7789L23.8849 24.6982C24.2873 25.1005 24.936 25.1005 25.3383 24.6982C25.7407 24.3009 25.7407 23.6471 25.3383 23.2498ZM11.3825 19.0605C6.79088 19.0605 3.05926 15.3289 3.05926 10.7423C3.05926 6.15577 6.79088 2.41912 11.3825 2.41912C15.9691 2.41912 19.7057 6.15577 19.7057 10.7423C19.7057 15.3289 15.9691 19.0605 11.3825 19.0605Z" fill="#F5F5F2"/>
</svg>
